#define block_width 24
#define block_height 24
static char block_bits[] = {
   0xfe, 0xff, 0x7f, 0x01, 0x00, 0x80, 0x01, 0x00, 0xc0, 0x51, 0x55, 0xf5,
   0xa9, 0xaa, 0xea, 0x11, 0x00, 0xf0, 0x09, 0x00, 0xec, 0x11, 0x55, 0xf7,
   0x89, 0xaa, 0xee, 0x11, 0x01, 0xf7, 0x89, 0xc0, 0xee, 0x11, 0x71, 0xf7,
   0x89, 0xe8, 0xee, 0x11, 0x79, 0xf7, 0x89, 0xfc, 0xee, 0x11, 0x55, 0xf7,
   0x89, 0xaa, 0xee, 0x91, 0xff, 0xf7, 0xc9, 0xff, 0xef, 0x51, 0x55, 0xf5,
   0xa9, 0xaa, 0xea, 0xf9, 0xff, 0xff, 0xfd, 0xff, 0xff, 0xfe, 0xff, 0x7f};
