#define block_udr_width 24
#define block_udr_height 24
static char block_udr_bits[] = {
   0x89, 0xe8, 0xee, 0x11, 0x71, 0x37, 0x89, 0xe8, 0x0e, 0x11, 0x71, 0x57,
   0x89, 0xe8, 0xae, 0x11, 0x71, 0x03, 0x89, 0xe8, 0x00, 0x11, 0x71, 0x55,
   0x89, 0xe8, 0xaa, 0x11, 0x31, 0x00, 0x89, 0x08, 0x00, 0x11, 0x51, 0x55,
   0x89, 0xa8, 0xaa, 0x11, 0xf1, 0xff, 0x89, 0xe8, 0xff, 0x11, 0x71, 0x55,
   0x89, 0xe8, 0xaa, 0x11, 0x71, 0xff, 0x89, 0xe8, 0xfe, 0x11, 0x71, 0x57,
   0x89, 0xe8, 0xae, 0x11, 0x71, 0xf7, 0x89, 0xe8, 0xee, 0x11, 0x71, 0xf7};
