#define block_udlr_width 24
#define block_udlr_height 24
static char block_udlr_bits[] = {
   0x89, 0xe8, 0xee, 0x10, 0x71, 0x37, 0x88, 0xe8, 0x0e, 0x15, 0x71, 0x57,
   0x8a, 0xe8, 0xae, 0x00, 0x71, 0x03, 0x80, 0xe8, 0x00, 0x55, 0x71, 0x55,
   0xaa, 0xe8, 0xaa, 0x00, 0x30, 0x00, 0x00, 0x08, 0x00, 0x55, 0x55, 0x55,
   0xaa, 0xaa, 0xaa, 0xff, 0xf3, 0xff, 0xff, 0xe9, 0xff, 0x55, 0x71, 0x55,
   0xaa, 0xe8, 0xaa, 0x3f, 0x71, 0xff, 0x9f, 0xe8, 0xfe, 0x15, 0x71, 0x57,
   0x8a, 0xe8, 0xae, 0x13, 0x71, 0xf7, 0x89, 0xe8, 0xee, 0x11, 0x71, 0xf7};
