#define block_ud_width 24
#define block_ud_height 24
static char block_ud_bits[] = {
   0x89, 0xe8, 0xee, 0x11, 0x71, 0xf7, 0x89, 0xe8, 0xee, 0x11, 0x71, 0xf7,
   0x89, 0xe8, 0xee, 0x11, 0x71, 0xf7, 0x89, 0xe8, 0xee, 0x11, 0x71, 0xf7,
   0x89, 0xe8, 0xee, 0x11, 0x71, 0xf7, 0x89, 0xe8, 0xee, 0x11, 0x71, 0xf7,
   0x89, 0xe8, 0xee, 0x11, 0x71, 0xf7, 0x89, 0xe8, 0xee, 0x11, 0x71, 0xf7,
   0x89, 0xe8, 0xee, 0x11, 0x71, 0xf7, 0x89, 0xe8, 0xee, 0x11, 0x71, 0xf7,
   0x89, 0xe8, 0xee, 0x11, 0x71, 0xf7, 0x89, 0xe8, 0xee, 0x11, 0x71, 0xf7};
