#define block_l_width 24
#define block_l_height 24
static char block_l_bits[] = {
   0xff, 0xff, 0x7f, 0x00, 0x00, 0x80, 0x00, 0x00, 0xc0, 0x55, 0x55, 0xf5,
   0xaa, 0xaa, 0xea, 0x00, 0x00, 0xf0, 0x00, 0x00, 0xec, 0x55, 0x55, 0xf7,
   0xaa, 0xaa, 0xee, 0x00, 0x00, 0xf7, 0x00, 0xc0, 0xee, 0x55, 0x75, 0xf7,
   0xaa, 0xea, 0xee, 0xff, 0x7f, 0xf7, 0xff, 0xff, 0xee, 0x55, 0x55, 0xf7,
   0xaa, 0xaa, 0xee, 0xff, 0xff, 0xf7, 0xff, 0xff, 0xef, 0x55, 0x55, 0xf5,
   0xaa, 0xaa, 0xea, 0xff, 0xff, 0xff, 0xff, 0xff, 0xff, 0xff, 0xff, 0x7f};
