#define block_r_width 24
#define block_r_height 24
static char block_r_bits[] = {
   0xfe, 0xff, 0xff, 0x01, 0x00, 0x00, 0x01, 0x00, 0x00, 0x51, 0x55, 0x55,
   0xa9, 0xaa, 0xaa, 0x11, 0x00, 0x00, 0x09, 0x00, 0x00, 0x11, 0x55, 0x55,
   0x89, 0xaa, 0xaa, 0x11, 0x01, 0x00, 0x89, 0x00, 0x00, 0x11, 0x51, 0x55,
   0x89, 0xa8, 0xaa, 0x11, 0xf9, 0xff, 0x89, 0xfc, 0xff, 0x11, 0x55, 0x55,
   0x89, 0xaa, 0xaa, 0x91, 0xff, 0xff, 0xc9, 0xff, 0xff, 0x51, 0x55, 0x55,
   0xa9, 0xaa, 0xaa, 0xf9, 0xff, 0xff, 0xfd, 0xff, 0xff, 0xfe, 0xff, 0xff};
