#define block_udl_width 24
#define block_udl_height 24
static char block_udl_bits[] = {
   0x89, 0xe8, 0xee, 0x10, 0x71, 0xf7, 0x88, 0xe8, 0xee, 0x15, 0x71, 0xf7,
   0x8a, 0xe8, 0xee, 0x00, 0x71, 0xf7, 0x80, 0xe8, 0xee, 0x55, 0x71, 0xf7,
   0xaa, 0xe8, 0xee, 0x00, 0x70, 0xf7, 0x00, 0xe8, 0xee, 0x55, 0x75, 0xf7,
   0xaa, 0xea, 0xee, 0xff, 0x73, 0xf7, 0xff, 0xe9, 0xee, 0x55, 0x71, 0xf7,
   0xaa, 0xe8, 0xee, 0x3f, 0x71, 0xf7, 0x9f, 0xe8, 0xee, 0x15, 0x71, 0xf7,
   0x8a, 0xe8, 0xee, 0x13, 0x71, 0xf7, 0x89, 0xe8, 0xee, 0x11, 0x71, 0xf7};
