#define disk_width 24
#define disk_height 24
static char disk_bits[] = {
   0x00, 0x00, 0x00, 0x00, 0x7c, 0x00, 0x00, 0x83, 0x01, 0xc0, 0x7c, 0x06,
   0x20, 0x83, 0x09, 0x90, 0x10, 0x1a, 0x48, 0x28, 0x34, 0x28, 0x44, 0x28,
   0x14, 0x7c, 0x50, 0x14, 0x00, 0x70, 0x8a, 0x01, 0xe3, 0x4a, 0x01, 0xa5,
   0x2a, 0x01, 0xe9, 0x4a, 0x01, 0xa5, 0x8a, 0x01, 0xe3, 0x14, 0x00, 0x70,
   0x14, 0x7c, 0x70, 0x28, 0x44, 0x38, 0x48, 0x28, 0x3c, 0xb0, 0x10, 0x1e,
   0x60, 0x83, 0x0f, 0xc0, 0xfd, 0x07, 0x00, 0xeb, 0x01, 0x00, 0x7c, 0x00};
