#define freeze_width 24
#define freeze_height 24
static char freeze_bits[] = {
   0x00, 0x00, 0x00, 0x00, 0x10, 0x00, 0x00, 0x28, 0x00, 0x00, 0x54, 0x00,
   0x00, 0xb2, 0x00, 0x00, 0x51, 0x01, 0x80, 0xa8, 0x02, 0x40, 0x44, 0x05,
   0x20, 0x82, 0x0a, 0x10, 0x7d, 0x15, 0x88, 0x7c, 0x2a, 0x44, 0x0c, 0x54,
   0x3a, 0x3c, 0xf8, 0x54, 0x3c, 0x7c, 0xa8, 0x0c, 0x3e, 0x50, 0x0d, 0x1f,
   0xa0, 0x82, 0x0f, 0x40, 0xc5, 0x07, 0x80, 0xea, 0x03, 0x00, 0xf5, 0x01,
   0x00, 0xfa, 0x00, 0x00, 0x74, 0x00, 0x00, 0x38, 0x00, 0x00, 0x10, 0x00};
