#define gate_width 24
#define gate_height 24
static char gate_bits[] = {
   0x00, 0x00, 0x00, 0xfc, 0xff, 0x3f, 0x02, 0x00, 0x40, 0x02, 0x00, 0x60,
   0x52, 0x55, 0x75, 0xa2, 0xaa, 0x7a, 0xd2, 0xff, 0x75, 0xe2, 0xaa, 0x78,
   0x52, 0x00, 0x75, 0xe2, 0xaa, 0x78, 0x52, 0xd4, 0x75, 0xe2, 0xaa, 0x78,
   0x52, 0xd4, 0x75, 0xe2, 0xaa, 0x78, 0x52, 0xd4, 0x75, 0xe2, 0xfe, 0x78,
   0x52, 0x55, 0x75, 0x22, 0x00, 0x78, 0x52, 0x55, 0x75, 0xa2, 0xaa, 0x7a,
   0xf2, 0xff, 0x7f, 0xfa, 0xff, 0x7f, 0xfc, 0xff, 0x3f, 0x00, 0x00, 0x00};
