#define heart_width 24
#define heart_height 24
static char heart_bits[] = {
   0x00, 0x00, 0x00, 0xe0, 0x83, 0x0f, 0x38, 0xef, 0x3c, 0xcc, 0xbf, 0x7f,
   0xf6, 0xff, 0xff, 0xfa, 0xff, 0xff, 0xfa, 0xff, 0xff, 0xfa, 0xff, 0xff,
   0xfe, 0xff, 0xff, 0xf6, 0xff, 0xff, 0xf4, 0xff, 0x7f, 0xfc, 0xff, 0x7f,
   0xd8, 0xff, 0x3f, 0xf0, 0xff, 0x1f, 0xe0, 0xff, 0x0f, 0x80, 0xff, 0x03,
   0x00, 0xff, 0x01, 0x00, 0x7c, 0x00, 0x00, 0x38, 0x00, 0x00, 0x10, 0x00,
   0x00, 0x00, 0x00, 0x00, 0x00, 0x00, 0x00, 0x00, 0x00, 0x00, 0x00, 0x00};
