#define invisible_width 24
#define invisible_height 24
static char invisible_bits[] = {
   0xaa, 0xaa, 0x2a, 0x00, 0x00, 0x80, 0x01, 0x00, 0x00, 0xa8, 0xaa, 0x8a,
   0x01, 0x00, 0x10, 0x08, 0x00, 0x80, 0x01, 0x00, 0x10, 0x88, 0xaa, 0x80,
   0x01, 0x00, 0x11, 0x88, 0x00, 0x80, 0x01, 0x00, 0x11, 0x88, 0x00, 0x80,
   0x01, 0x00, 0x11, 0x88, 0x00, 0x80, 0x01, 0x00, 0x11, 0x88, 0x00, 0x80,
   0x01, 0x55, 0x11, 0x08, 0x00, 0x80, 0x01, 0x00, 0x10, 0x08, 0x00, 0x80,
   0x51, 0x55, 0x15, 0x00, 0x00, 0x80, 0x01, 0x00, 0x00, 0x54, 0x55, 0x55};
