#define killer_width 24
#define killer_height 24
static char killer_bits[] = {
   0x00, 0x00, 0x00, 0xfc, 0xff, 0x3f, 0x02, 0x00, 0x40, 0x02, 0x00, 0x60,
   0x52, 0x55, 0x75, 0xa2, 0xaa, 0x7a, 0x52, 0x96, 0x75, 0x22, 0x8e, 0x7b,
   0x12, 0x4d, 0x77, 0x22, 0xaa, 0x7b, 0x52, 0xd4, 0x75, 0xa2, 0xea, 0x7a,
   0x52, 0xd4, 0x75, 0x22, 0xaa, 0x7b, 0x12, 0x4d, 0x77, 0x22, 0x8e, 0x7b,
   0x52, 0xd7, 0x75, 0xa2, 0xeb, 0x7a, 0x52, 0x55, 0x75, 0xa2, 0xaa, 0x7a,
   0xf2, 0xff, 0x7f, 0xfa, 0xff, 0x7f, 0xfc, 0xff, 0x3f, 0x00, 0x00, 0x00};
