#define spiky_width 24
#define spiky_height 24
static char spiky_bits[] = {
   0x00, 0x00, 0x00, 0x40, 0x08, 0x00, 0xc0, 0x4c, 0x02, 0x48, 0x6b, 0x23,
   0x78, 0x5a, 0x35, 0x08, 0x80, 0x2c, 0x10, 0x00, 0x10, 0x10, 0x00, 0x10,
   0x8e, 0xc3, 0x71, 0x42, 0x24, 0x22, 0xe4, 0xff, 0x27, 0xa8, 0xdb, 0x15,
   0xa8, 0xdb, 0x75, 0x44, 0x24, 0x42, 0x8e, 0xc3, 0x31, 0x10, 0x00, 0x10,
   0x10, 0x00, 0x24, 0x48, 0x80, 0x3c, 0x78, 0x8a, 0x05, 0x40, 0x9b, 0x0a,
   0xa0, 0xaa, 0x0c, 0x60, 0xc6, 0x00, 0x00, 0x82, 0x00, 0x00, 0x00, 0x00};
