#define squashy_width 24
#define squashy_height 24
static char squashy_bits[] = {
   0x00, 0x00, 0x00, 0xe0, 0xb9, 0x0f, 0xf8, 0xff, 0x1f, 0x5c, 0xd7, 0x15,
   0xac, 0xab, 0x3a, 0x5c, 0x55, 0x3d, 0xac, 0xaa, 0x6a, 0xdc, 0xd7, 0x77,
   0x6c, 0x6c, 0x6c, 0xf6, 0xff, 0x7f, 0xae, 0xab, 0x2b, 0xb6, 0xbb, 0x7b,
   0x6e, 0x6c, 0x6c, 0xd6, 0xd7, 0x57, 0xac, 0xaa, 0x6a, 0x7c, 0x55, 0x35,
   0xac, 0xaa, 0x3e, 0x5c, 0x55, 0x1d, 0xb8, 0xeb, 0x1a, 0xf0, 0x55, 0x0f,
   0xe0, 0xeb, 0x07, 0x00, 0xff, 0x01, 0x00, 0x3e, 0x00, 0x00, 0x00, 0x00};
